<?xml version="1.0" encoding="UTF-8" standalone="no"?>
<!-- Created with Inkscape (http://www.inkscape.org/) -->

<svg
   width="210mm"
   height="210mm"
   viewBox="0 0 210 210"
   version="1.1"
   id="svg220"
   inkscape:version="1.2.2 (732a01da63, 2022-12-09, custom)"
   sodipodi:docname="ED_logo.svg"
   xmlns:inkscape="http://www.inkscape.org/namespaces/inkscape"
   xmlns:sodipodi="http://sodipodi.sourceforge.net/DTD/sodipodi-0.dtd"
   xmlns="http://www.w3.org/2000/svg"
   xmlns:svg="http://www.w3.org/2000/svg">
  <sodipodi:namedview
     id="namedview222"
     pagecolor="#ffffff"
     bordercolor="#000000"
     borderopacity="0.25"
     inkscape:showpageshadow="2"
     inkscape:pageopacity="0"
     inkscape:pagecheckerboard="0"
     inkscape:deskcolor="#d1d1d1"
     inkscape:document-units="mm"
     showgrid="false"
     inkscape:zoom="0.70199214"
     inkscape:cx="397.44035"
     inkscape:cy="561.9721"
     inkscape:window-width="1882"
     inkscape:window-height="1016"
     inkscape:window-x="0"
     inkscape:window-y="0"
     inkscape:window-maximized="1"
     inkscape:current-layer="layer1" />
  <defs
     id="defs217" />
  <g
     inkscape:label="Layer 1"
     inkscape:groupmode="layer"
     id="layer1">
    <g
       id="SvgjsG2231"
       featureKey="symbolFeature-0"
       transform="matrix(2.4733309,0,0,2.5492484,-18.665307,-22.956353)"
       fill="#ffffff"
       style="fill:#1b1b1b;fill-opacity:1">
      <g
         id="g16"
         style="fill:#1b1b1b;fill-opacity:1">
        <path
           d="m 50.281,10.465 c -0.564,-0.193 -0.683,-0.269 -0.803,-0.27 -17.897,-0.167 -34.989,13.751 -38.51,31.369 -0.105,0.525 -0.166,1.108 -0.052,1.621 2.098,9.478 6.637,17.408 14.852,22.898 2.057,1.375 4.317,2.445 6.484,3.655 0.129,-0.184 0.259,-0.368 0.388,-0.552 C 31.962,68.605 31.199,68.099 30.62,67.432 25.477,61.51 23.447,54.672 24.235,46.839 25.039,38.85 27.052,31.31 31.531,24.576 36.018,17.833 42.203,13.234 50.281,10.465 Z m -40.05,40.201 c -0.168,0.5 -0.246,0.621 -0.243,0.741 0.409,18.099 13.998,34.374 31.658,37.876 0.78,0.155 1.714,0.212 2.422,-0.071 4.123,-1.651 8.439,-3.01 12.24,-5.235 6.334,-3.708 10.48,-9.458 13.094,-16.32 -3.958,4.171 -8.721,6.867 -14.32,8.019 -4.658,0.959 -9.326,0.542 -13.937,-0.327 C 28.149,72.901 17.795,66.697 11.839,54.385 11.31,53.288 10.869,52.147 10.231,50.666 Z m 41.391,39.528 c 0.695,-0.075 1.574,-0.176 2.455,-0.263 C 71.12,88.249 85.275,75.702 88.993,58.951 89.137,58.302 89.205,57.57 89.062,56.932 86.457,45.306 80.13,36.563 69.181,31.436 c -0.497,-0.233 -1.017,-0.415 -1.599,-0.651 1.514,1.923 3.042,3.612 4.285,5.489 3.918,5.919 4.626,12.49 3.786,19.382 -1.342,11.01 -5.151,20.838 -13.93,28.058 -3.08,2.532 -6.742,4.355 -10.101,6.48 z M 89.746,49.691 C 89.935,49.116 90.014,48.992 90.01,48.87 89.55,31.373 76.792,15.549 59.808,11.469 c -0.96,-0.231 -2.054,-0.262 -3.018,-0.061 -5.31,1.106 -10.227,3.164 -14.618,6.391 -5.087,3.74 -8.759,8.569 -11.114,14.435 3.635,-3.532 7.767,-6.293 12.75,-7.184 12.653,-2.264 24.16,0.755 34.421,8.367 5.433,4.029 9.028,9.524 11.517,16.274 z"
           id="path6"
           style="fill:#1b1b1b;fill-opacity:1" />
        <path
           d="m 50.281,10.465 c -8.078,2.769 -14.262,7.368 -18.749,14.113 -4.479,6.734 -6.492,14.273 -7.296,22.263 -0.788,7.833 1.242,14.671 6.385,20.593 0.579,0.667 1.342,1.173 2.02,1.754 -0.129,0.184 -0.259,0.368 -0.388,0.552 -2.167,-1.21 -4.427,-2.281 -6.484,-3.655 -8.216,-5.49 -12.754,-13.42 -14.852,-22.898 -0.114,-0.513 -0.053,-1.096 0.052,-1.621 3.521,-17.619 20.613,-31.536 38.51,-31.369 0.118,-10e-4 0.238,0.075 0.802,0.268 z"
           id="path8"
           style="fill:#1b1b1b;fill-opacity:1" />
        <path
           d="m 10.231,50.666 c 0.638,1.481 1.078,2.622 1.609,3.719 5.955,12.312 16.31,18.516 29.306,20.964 4.611,0.868 9.279,1.285 13.937,0.327 5.599,-1.152 10.362,-3.848 14.32,-8.019 -2.614,6.862 -6.761,12.613 -13.094,16.32 -3.801,2.225 -8.116,3.584 -12.24,5.235 -0.708,0.283 -1.643,0.226 -2.422,0.071 C 23.987,85.781 10.398,69.506 9.989,51.407 c -0.004,-0.12 0.075,-0.242 0.242,-0.741 z"
           id="path10"
           style="fill:#1b1b1b;fill-opacity:1" />
        <path
           d="m 51.622,90.194 c 3.36,-2.124 7.021,-3.947 10.099,-6.479 8.779,-7.22 12.589,-17.048 13.93,-28.058 0.84,-6.892 0.132,-13.463 -3.786,-19.382 -1.243,-1.877 -2.771,-3.566 -4.285,-5.489 0.582,0.235 1.102,0.418 1.599,0.651 10.949,5.127 17.276,13.87 19.881,25.496 0.143,0.638 0.075,1.37 -0.069,2.019 -3.719,16.751 -17.874,29.298 -34.916,30.98 -0.879,0.086 -1.758,0.187 -2.453,0.262 z"
           id="path12"
           style="fill:#1b1b1b;fill-opacity:1" />
        <path
           d="M 89.746,49.691 C 87.256,42.941 83.662,37.446 78.23,33.417 67.969,25.805 56.462,22.786 43.809,25.05 c -4.983,0.892 -9.115,3.652 -12.75,7.184 2.355,-5.866 6.026,-10.695 11.114,-14.435 4.391,-3.228 9.308,-5.285 14.618,-6.391 0.964,-0.201 2.058,-0.17 3.018,0.061 16.984,4.08 29.742,19.904 30.202,37.401 0.003,0.122 -0.076,0.246 -0.265,0.821 z"
           id="path14"
           style="fill:#1b1b1b;fill-opacity:1" />
      </g>
    </g>
  </g>
</svg>
